<svg version="1.1" xmlns="http://www.w3.org/2000/svg" style="display: block;" viewBox="0 0 2048 2048" width="2048" height="2048" preserveAspectRatio="none">
<path transform="translate(0,0)" fill="rgb(231,192,117)" d="M 0 0 L 2048 0 L 2048 2048 L 0 2048 L 0 0 z"/>
<path transform="translate(0,0)" fill="rgb(0,0,0)" d="M 60.2897 1588.18 C 59.7946 1590.63 60.3973 1590.27 59.0741 1591.15 C 56.879 1581.47 58.5232 1533.3 58.5235 1521.21 L 58.5245 1324.4 L 58.5152 525.73 L 58.5052 199.395 C 58.4909 185.39 57.1981 83.3048 59.4006 76.6597 C 63.5289 75.2776 71.5413 75.0833 75.9628 75.046 L 652.313 75.5537 C 707.506 75.1597 762.7 75.231 817.891 75.7675 C 835.208 75.7939 869.549 73.4738 884.823 76.43 L 883.619 75.8522 C 891.217 76.8716 898.13 84.0796 900.87 90.9477 C 905.371 96.4909 915.259 105.499 920.884 110.97 L 958.903 147.929 L 1085.07 270.853 L 1190.01 374.013 C 1201.66 385.627 1230.49 416.582 1241.82 425.074 C 1245.15 424.622 1253.73 432.858 1253.84 434.866 C 1255.28 461.305 1253.79 487.729 1253.73 514.199 L 1253.58 675.992 C 1253.72 698.527 1254.98 727.746 1254.54 750.214 C 1254.2 767.349 1250.51 860.217 1255.65 870.12 C 1260.07 874.745 1266.27 879.582 1271.16 883.838 C 1325 930.737 1380.4 976.315 1433.7 1023.79 L 1422.7 1033.07 C 1430.78 1039.97 1438.83 1046.93 1446.83 1053.94 L 1446.78 776.559 C 1492.55 775.999 1539.33 776.518 1585.2 776.51 L 1959.1 776.403 C 1959.15 792.653 1959.09 808.904 1958.93 825.153 C 1968.6 825.162 1979.6 825.498 1989.08 824.273 C 1990.91 827.018 1991.56 828.936 1991.7 832.308 C 1992.39 848.455 1991.04 864.719 1991.05 880.825 C 1991.11 1016.23 1991.36 1151.69 1990.64 1287.06 C 1990.63 1288.64 1989.61 1288.73 1988.64 1289.03 C 1972.25 1288.25 1952 1288.8 1935.22 1288.81 L 1838.49 1288.81 C 1720.07 1288.81 1598.81 1290.25 1480.61 1288.7 C 1475.28 1282.84 1480.84 1257.73 1477.9 1249.72 C 1474.62 1240.8 1458.31 1250.74 1446.99 1245.04 C 1445.51 1243.15 1444.73 1242.76 1444.67 1240.13 C 1443.49 1187.48 1445.15 1134.75 1444.57 1082.06 C 1444.52 1078.2 1444.98 1071.51 1444.03 1068 L 1440.46 1066.15 L 1322.4 1166.88 C 1298.93 1186.99 1273.99 1207.6 1251.26 1228.31 L 1251.23 1654.33 L 118.935 1654.3 L 118.956 1592.11 C 110.8 1592.16 65.5446 1593.32 60.9163 1590.83 L 60.2897 1588.18 z"/>
<path transform="translate(0,0)" fill="rgb(226,192,128)" d="M 60.2897 1588.18 C 59.7946 1590.63 60.3973 1590.27 59.0741 1591.15 C 56.879 1581.47 58.5232 1533.3 58.5235 1521.21 L 58.5245 1324.4 L 58.5152 525.73 L 58.5052 199.395 C 58.4909 185.39 57.1981 83.3048 59.4006 76.6597 C 63.5289 75.2776 71.5413 75.0833 75.9628 75.046 L 652.313 75.5537 C 707.506 75.1597 762.7 75.231 817.891 75.7675 C 835.208 75.7939 869.549 73.4738 884.823 76.43 L 883.619 75.8522 C 891.217 76.8716 898.13 84.0796 900.87 90.9477 C 896.152 86.8062 892.583 83.427 888.174 78.9573 L 60.4867 78.9632 L 60.5232 1093.26 L 60.5493 1425.1 L 60.5507 1532.5 C 60.55 1549.22 61.2738 1571.99 60.2897 1588.18 z"/>
<path transform="translate(0,0)" fill="rgb(226,192,128)" d="M 1989.08 824.273 C 1990.91 827.018 1991.56 828.936 1991.7 832.308 C 1992.39 848.455 1991.04 864.719 1991.05 880.825 C 1991.11 1016.23 1991.36 1151.69 1990.64 1287.06 C 1990.63 1288.64 1989.61 1288.73 1988.64 1289.03 C 1987.51 1282.94 1987.94 1252.11 1987.94 1244.33 L 1987.95 1149.28 L 1987.92 938.409 C 1987.92 902.562 1987.84 866.579 1988.03 830.734 C 1988.04 827.904 1988.35 826.902 1989.08 824.273 z"/>
<path transform="translate(0,0)" fill="rgb(226,192,128)" d="M 1241.82 425.074 C 1245.15 424.622 1253.73 432.858 1253.84 434.866 C 1255.28 461.305 1253.79 487.729 1253.73 514.199 L 1253.58 675.992 C 1253.72 698.527 1254.98 727.746 1254.54 750.214 C 1254.2 767.349 1250.51 860.217 1255.65 870.12 C 1254.9 869.564 1251.45 866.725 1251.44 865.946 C 1250.77 833.048 1251.1 800.066 1251.12 767.154 L 1251.11 434.499 C 1247.58 431.25 1244.78 428.887 1241.82 425.074 z"/>
<path transform="translate(0,0)" fill="rgb(226,192,128)" d="M 1440.46 1066.15 L 1446.74 1060.89 L 1446.77 1243.02 L 1480.89 1243 C 1480.97 1253.86 1481.76 1279 1480.61 1288.7 C 1475.28 1282.84 1480.84 1257.73 1477.9 1249.72 C 1474.62 1240.8 1458.31 1250.74 1446.99 1245.04 C 1445.51 1243.15 1444.73 1242.76 1444.67 1240.13 C 1443.49 1187.48 1445.15 1134.75 1444.57 1082.06 C 1444.52 1078.2 1444.98 1071.51 1444.03 1068 L 1440.46 1066.15 z"/>
<path transform="translate(0,0)" fill="rgb(236,229,210)" d="M 102.551 124.728 L 854.383 124.768 L 854.367 417.437 L 1154.23 417.436 C 1153.64 466.172 1154.17 516.069 1154.17 564.883 L 1154.31 784.474 C 1148.17 778.832 1141.12 773.218 1134.66 767.869 C 1135.78 817.4 1135.03 869.717 1135.06 919.458 L 1031.6 919.603 L 984.245 1126.94 C 996.981 1126.99 1009.21 1128.72 1021.36 1128.78 C 1059.18 1128.96 1097.09 1128.85 1134.91 1128.81 L 1135.11 1278.92 L 1154.37 1263.87 L 1154.3 1351.5 L 1154.31 1548.99 L 102.641 1549.04 L 102.551 124.728 z"/>
<path transform="translate(0,0)" fill="rgb(0,0,0)" d="M 417.617 364.512 L 472.933 364.454 C 506.438 364.449 541.055 362.047 568.744 385.402 C 588.199 401.812 597.669 430.51 598.926 455.219 C 600.685 489.822 597.056 520.165 573.719 546.774 C 544.83 575.071 511.219 573.287 473.988 573.286 L 417.614 573.228 L 417.617 364.512 z"/>
<path transform="translate(0,0)" fill="rgb(236,229,210)" d="M 491.588 408.502 C 496.457 408.499 503.658 408.156 508.256 409.136 C 540.973 416.112 545.758 452.385 543.129 479.918 C 541.455 497.457 536.819 512.76 521.685 522.444 C 505.733 529.655 490.513 528.159 473.208 528.063 C 472.946 488.219 472.985 448.374 473.326 408.531 L 491.588 408.502 z"/>
<path transform="translate(0,0)" fill="rgb(0,0,0)" d="M 851.845 919.43 L 1004.71 919.535 C 1003.18 928.102 1000.67 935.219 999.622 944.089 C 1001.42 947.851 1002.48 943.526 1007.82 946.853 C 1007.73 949.292 1004.91 963.347 1004.26 965.49 C 998.391 984.79 972.267 1123.28 966.744 1128.8 C 925.056 1128.84 883.248 1128.95 841.566 1128.79 C 829.455 1128.75 816.98 1126.92 803.872 1126.76 C 820.951 1059.54 836.506 987.212 851.845 919.43 z"/>
<path transform="translate(0,0)" fill="rgb(238,23,114)" d="M 871.613 945.366 C 903.213 944.235 943.103 944.96 974.915 945.303 C 971.985 962.295 966.268 984.406 962.328 1001.6 L 939.124 1102.88 C 904.548 1103.12 869.971 1103.13 835.395 1102.92 C 838.313 1086.02 844.609 1061.85 848.594 1044.82 L 871.613 945.366 z"/>
<path transform="translate(0,0)" fill="rgb(0,0,0)" d="M 216.307 803.207 L 1014.77 803.175 L 1014.81 840.999 L 216.303 841.025 L 216.307 803.207 z"/>
<path transform="translate(0,0)" fill="rgb(0,0,0)" d="M 216.28 700.024 L 1014.82 700.002 L 1014.73 737.574 L 216.3 737.545 L 216.28 700.024 z"/>
<path transform="translate(0,0)" fill="rgb(0,0,0)" d="M 216.287 1262.65 L 1010.8 1262.61 L 1010.78 1300.02 C 982.098 1300.69 951.198 1300.08 922.279 1300.09 L 745.309 1300.09 L 216.267 1300.07 L 216.287 1262.65 z"/>
<path transform="translate(0,0)" fill="rgb(0,0,0)" d="M 819.643 919.497 C 822.11 919.332 821.948 919.279 824.247 920.158 C 824.524 923.706 820.516 939.406 819.496 944.075 C 821.383 946.045 823.314 945.367 827.067 945.602 C 827.318 946.211 827.569 946.821 827.82 947.431 C 816.907 998.887 798.586 1081.05 788.246 1128.81 L 715.654 1128.83 C 704.511 1128.83 691.011 1129.73 680.409 1127.27 L 679.25 1127.01 L 658.789 1126.62 L 706.468 919.589 L 819.643 919.497 z"/>
<path transform="translate(0,0)" fill="rgb(238,23,114)" d="M 725.942 945.214 C 747.618 944.582 773.215 945.142 795.069 945.352 C 783.326 997.463 771.435 1051.04 758.934 1102.89 C 736.752 1103.41 712.567 1102.93 690.23 1102.93 C 690.958 1097.57 692.453 1091.51 693.724 1086.24 C 704.996 1039.42 714.552 991.963 725.942 945.214 z"/>
<path transform="translate(0,0)" fill="rgb(0,0,0)" d="M 226.821 364.5 L 287.792 364.403 C 316.253 364.379 355.139 361.687 375.254 383.574 C 408.814 420.09 394.409 493.316 340.651 501.821 C 330.775 503.383 324.042 503.391 314.44 503.396 L 272.908 503.403 L 272.935 573.176 L 217.528 573.167 C 218.408 505.043 217.961 433.96 217.538 365.746 C 219.87 363.92 223.572 364.493 226.821 364.5 z"/>
<path transform="translate(0,0)" fill="rgb(236,229,210)" d="M 272.883 408.004 C 286.091 407.895 317.206 405.586 327.184 411.796 C 332.126 414.932 335.503 420.021 336.47 425.794 C 338.355 436.478 337.397 444.686 330.954 453.332 C 317.624 463.366 290.932 459.89 272.899 459.73 L 272.883 408.004 z"/>
<path transform="translate(0,0)" fill="rgb(0,0,0)" d="M 541.248 919.529 L 678.635 919.543 C 677.463 924.728 671.96 941.923 674.314 945.371 C 677.404 945.374 678.243 945.279 681.324 945.885 C 682.691 949.656 653.826 1076.3 650.578 1090.94 C 647.62 1103.26 645.016 1116.37 642.353 1128.81 L 541.643 1128.8 C 539.5 1062.03 541.197 986.829 541.248 919.529 z"/>
<path transform="translate(0,0)" fill="rgb(238,23,114)" d="M 567.121 945.276 C 593.504 944.947 622.782 944.646 649.045 945.435 L 619.697 1074 C 617.929 1083.29 615.305 1093.74 613.199 1103.05 L 567.011 1103.04 C 566.88 1052.05 565.655 995.747 567.121 945.276 z"/>
<path transform="translate(0,0)" fill="rgb(0,0,0)" d="M 625.952 364.408 L 778.883 364.413 L 778.914 408.11 L 681.118 408.163 L 681.048 449.189 L 765.022 449.128 L 765.007 475.5 L 765.019 492.84 L 681.137 492.674 L 681.117 573.102 L 626.055 573.048 L 625.952 364.408 z"/>
<path transform="translate(0,0)" fill="rgb(0,0,0)" d="M 216.275 1366.04 L 675.961 1366.04 L 675.922 1403.83 L 216.306 1403.77 L 216.275 1366.04 z"/>
<path transform="translate(0,0)" fill="rgb(0,0,0)" d="M 216.24 1158.67 L 654.151 1158.58 L 654.154 1196 L 216.264 1195.99 L 216.24 1158.67 z"/>
<path transform="translate(0,0)" fill="rgb(0,0,0)" d="M 216.28 907.369 L 490.111 907.354 L 490.103 945.009 L 216.268 944.985 L 216.28 907.369 z"/>
<path transform="translate(0,0)" fill="rgb(0,0,0)" d="M 216.294 1054.9 L 484.046 1054.88 L 484.013 1092.33 L 216.277 1092.31 L 216.294 1054.9 z"/>
<path transform="translate(0,0)" fill="rgb(236,229,210)" d="M 1476.51 806.736 L 1928.17 806.749 C 1928.7 851.106 1928.89 895.466 1928.73 939.826 L 1928.48 1212.83 L 1476.63 1212.86 L 1476.51 806.736 z"/>
<path transform="translate(0,0)" fill="rgb(0,0,0)" d="M 1579.44 903.585 L 1658.19 903.71 C 1665.09 924.01 1672.31 953.061 1678.27 974.184 L 1717.45 1114.21 L 1663.9 1114.19 C 1660.52 1100.49 1656.93 1086.85 1653.14 1073.27 C 1652.48 1070.88 1652.89 1071.71 1651.21 1069.86 C 1643.51 1068.2 1594.94 1069.04 1584.38 1069.09 C 1580.82 1084.16 1577.13 1099.2 1573.32 1114.21 L 1520.55 1114.16 C 1538.98 1044.28 1560.38 973.569 1579.44 903.585 z"/>
<path transform="translate(0,0)" fill="rgb(236,229,210)" d="M 1617.14 937.641 C 1619.25 939.755 1639.32 1016.14 1642.1 1026.35 L 1620.5 1026.35 L 1594.33 1026.4 C 1602.27 996.9 1609.87 967.311 1617.14 937.641 z"/>
<path transform="translate(0,0)" fill="rgb(0,0,0)" d="M 1737.01 903.629 L 1877.23 903.588 C 1877.49 917.98 1877.4 932.703 1877.48 947.125 L 1832.48 947.171 L 1832.17 1071.19 L 1877.21 1071.18 L 1877.24 1113.91 C 1870.29 1114.85 1842.3 1114.25 1833.86 1114.25 L 1737.04 1114.17 C 1736.68 1099.85 1736.97 1085.48 1737.15 1071.15 L 1781.98 1071.13 L 1782.03 947.129 L 1736.94 947.105 L 1737.01 903.629 z"/>
<path transform="translate(0,0)" fill="rgb(238,23,114)" d="M 1160.99 825.317 C 1165.37 827.304 1191.5 850.079 1196.63 854.502 L 1259.12 908.25 C 1302.82 945.74 1353.22 986.294 1395.29 1024.41 C 1379.95 1039.47 1346.95 1065.93 1329.79 1080.39 L 1210.38 1181.46 C 1194.68 1194.8 1177.42 1210.11 1161.22 1222.55 C 1160.04 1185.77 1161.3 1140.34 1161.44 1103.01 C 1112.79 1103.31 1064.14 1103.27 1015.49 1102.9 C 1025.72 1052.01 1039.44 996.185 1051.04 945.232 L 1161.54 945.112 C 1160.26 906.314 1160.97 864.36 1160.99 825.317 z"/>
<path transform="translate(0,0)" fill="rgb(236,229,210)" d="M 899.645 154.556 C 905.799 159.554 917.321 171.472 923.428 177.465 L 965.584 218.708 C 979.625 232.4 1119.76 367.523 1121.18 371.096 L 899.33 371.674 C 900.739 300.569 899.45 225.978 899.645 154.556 z"/>
</svg>